# xmcd
#
# Track frame offsets:
#	150
#	32246
#	69455
#	96488
#	121345
#	156987
#
# Disc length: 2543 seconds
#
# Revision: 1
# Processed by: cddbd v1.5.2PL0 Copyright (c) Steve Scherf et al.
# Submitted via: audiograbber 1.83.01
#
DISCID=5009ed06
DTITLE=Herbie Hancock - The Finest in Jazz
DYEAR=2007
DGENRE=Jazz
TTITLE0=Watermelon Man [1962]
TTITLE1=Blind Man, Blind Man [1963]
TTITLE2=First Trip [1968]
TTITLE3=Cantaloupe Island [1964]
TTITLE4=Maiden Voyage [1965]
TTITLE5=Firewater [1969]
EXTD=
EXTT0=
EXTT1=
EXTT2=
EXTT3=
EXTT4=
EXTT5=
PLAYORDER=
